<svg xmlns="http://www.w3.org/2000/svg" xmlns:xlink="http://www.w3.org/1999/xlink" version="1.1" width="1024" height="768" viewBox="0 0 1024 768" xml:space="preserve">
<desc>Created with Fabric.js 6.7.1</desc>
<defs>
</defs>

<g transform="matrix(2.6257 0 0 2.6257 541.6849 439.2852)" style="" id="iText_textPair_b2ae6dea-5632-4fdd-b484-63d52b78f2e1">
		<text xml:space="preserve" font-family="Brandmark-Montserrat" font-size="100" font-style="normal" font-weight="300" style="stroke: none; stroke-width: 1; stroke-dasharray: none; stroke-linecap: butt; stroke-dashoffset: 0; stroke-linejoin: miter; stroke-miterlimit: 4; fill: rgb(255,255,255); fill-opacity: 0; fill-rule: nonzero; opacity: 1; text-decoration-thickness: 17.5046%; white-space: pre;"><tspan x="-160.1" y="31.414">L</tspan><tspan x="-102.3999" y="31.414">U</tspan><tspan x="-22.4999" y="31.414">N</tspan><tspan x="59.5" y="31.414">A</tspan><tspan x="130.6" y="31.414">I</tspan></text>
</g>
<g transform="matrix(2.6257 0 0 2.6257 512 384)" id="glyphGroup_textPair_b2ae6dea-5632-4fdd-b484-63d52b78f2e1">
<g style="">
		<g transform="matrix(1.3889 0 0 1.3889 -125.9 -0.25)">
<g style="">
		<g transform="matrix(1 0 0 1 0 0)">
<path style="stroke: none; stroke-width: 1; stroke-dasharray: none; stroke-linecap: butt; stroke-dashoffset: 0; stroke-linejoin: miter; stroke-miterlimit: 4; fill: rgb(222,87,100); fill-rule: nonzero; opacity: 1;" transform=" translate(-104.068, -95.9747)" d="M 87.724 70.7747 L 87.724 121.1747 L 120.412 121.1747 L 120.412 117.8627 L 91.396 117.8627 L 91.396 70.7747 Z" stroke-linecap="round"/>
</g>
</g>
</g>
		<g transform="matrix(1.3889 0 0 1.3889 -62.05 0)">
<g style="">
		<g transform="matrix(1 0 0 1 0 0)">
<path style="stroke: none; stroke-width: 1; stroke-dasharray: none; stroke-linecap: butt; stroke-dashoffset: 0; stroke-linejoin: miter; stroke-miterlimit: 4; fill: rgb(222,87,100); fill-rule: nonzero; opacity: 1;" transform=" translate(-100, -96.1547)" d="M 85.132 115.9907 C 88.66 119.6627 93.556 121.5347 99.964 121.5347 C 106.372 121.5347 111.34 119.6627 114.868 115.9907 C 118.396 112.3187 120.196 106.9187 120.196 99.7907 L 120.196 70.7747 L 116.524 70.7747 L 116.524 99.6467 C 116.524 105.8387 115.084 110.4467 112.276 113.5427 C 109.468 116.6387 105.364 118.1507 100.036 118.1507 C 94.636 118.1507 90.532 116.6387 87.724 113.5427 C 84.916 110.4467 83.476 105.8387 83.476 99.6467 L 83.476 70.7747 L 79.804 70.7747 L 79.804 99.7907 C 79.804 106.9187 81.604 112.3187 85.132 115.9907 Z" stroke-linecap="round"/>
</g>
</g>
</g>
		<g transform="matrix(1.3889 0 0 1.3889 18.9 -0.25)">
<g style="">
		<g transform="matrix(1 0 0 1 0 0)">
<path style="stroke: none; stroke-width: 1; stroke-dasharray: none; stroke-linecap: butt; stroke-dashoffset: 0; stroke-linejoin: miter; stroke-miterlimit: 4; fill: rgb(222,87,100); fill-rule: nonzero; opacity: 1;" transform=" translate(-100, -95.9747)" d="M 120.52 70.7747 L 116.848 70.7747 L 116.848 114.5507 L 82.576 70.7747 L 79.48 70.7747 L 79.48 121.1747 L 83.152 121.1747 L 83.152 77.3987 L 117.496 121.1747 L 120.52 121.1747 Z" stroke-linecap="round"/>
</g>
</g>
</g>
		<g transform="matrix(1.3889 0 0 1.3889 95.45 -0.25)">
<g style="">
		<g transform="matrix(1 0 0 1 0 0)">
<path style="stroke: none; stroke-width: 1; stroke-dasharray: none; stroke-linecap: butt; stroke-dashoffset: 0; stroke-linejoin: miter; stroke-miterlimit: 4; fill: rgb(243,186,87); fill-rule: nonzero; opacity: 1;" transform=" translate(-100, -95.9747)" d="M 101.836 70.7747 L 98.164 70.7747 L 74.98 121.1747 L 78.94 121.1747 L 99.964 74.8067 L 121.06 121.1747 L 125.02 121.1747 Z" stroke-linecap="round"/>
</g>
</g>
</g>
		<g transform="matrix(1.3889 0 0 1.3889 146.05 -0.25)">
<g style="">
		<g transform="matrix(1 0 0 1 0 0)">
<path style="stroke: none; stroke-width: 1; stroke-dasharray: none; stroke-linecap: butt; stroke-dashoffset: 0; stroke-linejoin: miter; stroke-miterlimit: 4; fill: rgb(243,186,87); fill-rule: nonzero; opacity: 1;" transform=" translate(-100, -95.9747)" d="M 98.164 70.7747 L 98.164 121.1747 L 101.836 121.1747 L 101.836 70.7747 Z" stroke-linecap="round"/>
</g>
</g>
</g>
</g>
</g>
</svg>